<?xml version="1.0" encoding="UTF-8" standalone="no"?><svg width="525" height="294" viewBox="0 0 525 294" fill="none" xmlns="http://www.w3.org/2000/svg">
<path fill-rule="evenodd" clip-rule="evenodd" d="M325.253 114.924L321.661 126.975L346.12 121.146L328.845 102.874L325.253 114.924ZM318.963 129.527L327.983 99.2598L349.679 122.208L318.963 129.527Z" fill="#3B4E6C"/>
<path fill-rule="evenodd" clip-rule="evenodd" d="M437.898 145.32H401.235C400.723 145.32 400.307 144.905 400.307 144.391C400.307 143.879 400.723 143.463 401.235 143.463H437.898C438.411 143.463 438.827 143.879 438.827 144.391C438.827 144.905 438.411 145.32 437.898 145.32Z" fill="#FEFEFE"/>
<path fill-rule="evenodd" clip-rule="evenodd" d="M284.304 120.07C311.967 94.8921 322.447 72.4816 309.942 65.1856C319.32 47.4667 310.039 35.6832 301.703 39.5913C294.408 15.0982 272.752 19.3674 269.828 23.1837C245.444 5.97294 224.607 24.0407 232.162 33.7507C197.649 36.1663 206.303 66.9596 223.287 74.8615L284.304 120.07Z" fill="#EBC378"/>
<path fill-rule="evenodd" clip-rule="evenodd" d="M383.443 75.9509V70.9698C383.443 70.9698 381.251 74.5109 380.608 75.6143C379.453 74.2823 375.62 70.2974 375.62 70.2974L377.604 76.9264C377.604 76.9264 371.937 78.7093 370.119 79.1147C371.056 79.2626 377.489 80.326 377.489 80.326C377.489 80.326 377.727 85.6557 377.844 87.5283C378.198 86.9902 381.529 81.6724 381.529 81.6724L387.177 84.6419L384.152 79.9222L394.424 75.9845L383.443 75.9509Z" fill="#CC533D"/>
<path fill-rule="evenodd" clip-rule="evenodd" d="M285.54 145.644C283.683 134.063 283.818 114.409 286.179 102.657V102.656C291.317 102.702 295.865 98.9989 296.724 93.7688C297.674 87.9881 293.759 82.5328 287.98 81.5825C286.502 81.3399 285.044 81.4157 283.677 81.7593C282.437 76.0696 282.046 71.4766 283.409 65.0399C264.131 71.2931 246.358 66.2003 245.316 58.3833C229.246 65.9819 225.082 61.1417 225.082 61.1417C223.393 72.4087 221.153 93.1029 221.159 98.6871C221.181 119.363 227.059 126.823 243.432 127.848C243.528 131.267 243.643 143.41 242.583 150.401C242.583 150.401 239.105 152.31 240.916 156.033C242.728 159.757 255.909 167.708 267.48 163.883C279.051 160.059 285.54 145.644 285.54 145.644Z" fill="#F7A588"/>
<path fill-rule="evenodd" clip-rule="evenodd" d="M242.122 112.605C240.771 112.605 239.442 112.4 238.218 111.965C237.734 111.793 237.481 111.262 237.654 110.779C237.825 110.295 238.356 110.043 238.839 110.215C243.089 111.724 249.039 109.892 251.325 106.372C251.604 105.942 252.179 105.819 252.609 106.099C253.04 106.378 253.162 106.953 252.883 107.384C250.797 110.597 246.354 112.605 242.122 112.605Z" fill="#CD5649"/>
<path fill-rule="evenodd" clip-rule="evenodd" d="M205.734 292.599C205.783 276.292 205.819 259.829 205.823 241.38L197.538 249.09L162.047 217.071C162.047 217.071 177.122 191.661 193.524 170.929C205.072 156.331 222.1 150.401 241.518 150.548C244.479 153.884 249.698 157.332 261.707 157.571C271.223 157.759 280.863 155.946 287.131 149.45C287.131 149.45 321.748 152.478 345.897 175.499C358.558 187.569 351.038 217.508 351.038 217.508L333.978 240.672L325.478 234.553C326.076 248.351 326.678 273.986 327.465 292.599H205.734Z" fill="#3B4E6C"/>
<path fill-rule="evenodd" clip-rule="evenodd" d="M131.213 140.959C127.764 139.026 124.153 138.508 120.828 134.64C117.504 130.773 119.422 126.55 122.092 126.101C124.764 125.651 138.165 130.37 141.185 134.14C144.206 137.91 144.061 147.384 144.036 155.001C144.011 162.617 141.347 168.278 139.835 175.583C139.835 175.583 136.599 180.447 130.658 179.978C124.718 179.51 119.233 182.345 114.877 178.611C110.52 174.877 103.117 154.351 104.755 150.565C106.392 146.778 127.336 135.195 127.336 135.195L131.213 140.959Z" fill="#F7A588"/>
<path fill-rule="evenodd" clip-rule="evenodd" d="M113.76 138.05C112.33 135.749 109.046 136.067 106.771 137.598C104.962 138.816 104.055 140.277 104.215 142.652C104.256 143.263 104.367 143.934 104.553 144.678C105.458 148.312 108.491 153.885 110.361 156.234C112.229 158.583 114.404 161.232 116.9 160.049C119.881 158.637 121.437 155.244 120.848 153.913L113.76 138.05Z" fill="#F7A588"/>
<path fill-rule="evenodd" clip-rule="evenodd" d="M104.175 142.245C98.6132 141.186 94.8478 145.348 94.9896 150.384C95.1306 155.419 98.5791 167.55 102.467 173.566C106.285 179.476 109.038 180.067 115.678 181.253L104.175 142.245Z" fill="#F7A588"/>
<path fill-rule="evenodd" clip-rule="evenodd" d="M163.347 218.242C163.347 218.242 164.565 215.589 159.758 223.319C152.855 207.403 140.351 177.051 139.307 174.231L109.815 179.257C111.456 188.675 114.32 213.969 122.144 239.486C133.175 275.458 145.765 276.569 154.769 277.147C164.335 277.762 180.995 263.761 195.574 247.317L163.347 218.242Z" fill="#F7A588"/>
<path fill-rule="evenodd" clip-rule="evenodd" d="M121.501 164.154C121.05 164.154 120.654 163.824 120.584 163.364C119.626 157.044 123.381 152.151 126.397 148.218C128.483 145.499 130.284 143.151 130.284 140.959C130.284 140.445 130.701 140.03 131.213 140.03C131.726 140.03 132.142 140.445 132.142 140.959C132.142 143.782 130.067 146.486 127.87 149.349C124.922 153.192 121.581 157.548 122.42 163.086C122.497 163.592 122.148 164.066 121.641 164.143C121.594 164.15 121.547 164.154 121.501 164.154Z" fill="#CD5649"/>
<path fill-rule="evenodd" clip-rule="evenodd" d="M136.782 131.319C134.045 119.338 132.831 115.131 131.307 109.556C129.811 104.087 126.605 100.362 122.133 102.25C117.659 104.137 119.742 111.608 120.521 114.957C121.344 118.502 123.39 126.539 123.39 126.539L136.782 131.319Z" fill="#F7A588"/>
<path fill-rule="evenodd" clip-rule="evenodd" d="M120.51 127.014C119.52 126.938 118.397 126.957 117.095 127.456C113.793 128.719 112.93 129.441 113.469 135.849C114.008 142.258 117.534 149.635 118.916 151.707C120.297 153.778 121.646 155.148 124.415 154.394C127.183 153.639 128.152 152.225 127.719 149.127C127.285 146.029 125.69 138.826 125.69 138.826L120.51 127.014Z" fill="#F7A588"/>
<path fill-rule="evenodd" clip-rule="evenodd" d="M122.986 155.53C120.585 155.53 119.235 153.858 118.143 152.222C116.702 150.062 113.637 143.536 112.734 137.53C112.657 137.023 113.007 136.55 113.513 136.473C114.02 136.396 114.494 136.746 114.57 137.253C115.419 142.9 118.37 149.216 119.688 151.191C121.037 153.213 122.053 154.074 124.171 153.497C126.719 152.803 126.907 150.171 126.615 148.085C126.193 145.065 124.8 139.097 124.786 139.037C124.669 138.537 124.979 138.038 125.478 137.921C125.978 137.805 126.477 138.114 126.594 138.614C126.652 138.862 128.021 144.724 128.454 147.828C129.004 151.763 127.621 154.483 124.659 155.289C124.049 155.455 123.494 155.53 122.986 155.53Z" fill="#CD5649"/>
<path fill-rule="evenodd" clip-rule="evenodd" d="M116.806 160.591C114.483 160.591 112.219 159.223 110.061 156.511C108.102 154.049 104.892 148.645 103.959 144.903C103.76 144.102 103.641 143.387 103.596 142.715C103.561 142.203 103.948 141.76 104.46 141.725C104.97 141.69 105.415 142.078 105.449 142.59C105.487 143.144 105.591 143.771 105.762 144.454C106.619 147.894 109.708 153.083 111.515 155.354C113.553 157.916 115.592 159.029 117.574 158.662C118.199 158.546 120.101 158.194 119.92 153.953C119.898 153.441 120.295 153.008 120.808 152.986C121.32 152.962 121.753 153.362 121.775 153.874C121.981 158.711 119.789 160.14 117.913 160.489C117.542 160.557 117.173 160.591 116.806 160.591Z" fill="#CD5649"/>
<path fill-rule="evenodd" clip-rule="evenodd" d="M136.208 131.58C136.063 131.58 135.915 131.546 135.777 131.474C131.367 129.157 125.839 127.374 123.247 127.05C122.738 126.987 122.376 126.523 122.44 126.014C122.504 125.505 122.968 125.144 123.476 125.207C126.291 125.559 131.984 127.384 136.64 129.829C137.095 130.067 137.27 130.629 137.031 131.083C136.865 131.4 136.543 131.58 136.208 131.58Z" fill="#D35F4C"/>
<path fill-rule="evenodd" clip-rule="evenodd" d="M131.212 141.887C131.058 141.887 130.903 141.849 130.76 141.769C129.769 141.214 128.771 140.783 127.715 140.328C125.197 139.241 122.593 138.118 120.124 135.246C117.302 131.962 117.779 128.289 119.71 126.357C120.073 125.994 120.661 125.994 121.023 126.357C121.386 126.719 121.386 127.308 121.023 127.67C119.698 128.996 119.447 131.608 121.533 134.034C123.722 136.581 126.019 137.572 128.451 138.622C129.504 139.076 130.592 139.546 131.667 140.148C132.115 140.398 132.274 140.965 132.024 141.412C131.853 141.716 131.538 141.887 131.212 141.887Z" fill="#CD5649"/>
<path fill-rule="evenodd" clip-rule="evenodd" d="M325.38 220.752C324.885 220.752 324.474 220.362 324.452 219.864C324.147 212.847 323.971 208.92 323.927 208.191C323.896 207.679 324.286 207.239 324.798 207.208C325.313 207.176 325.75 207.567 325.781 208.079C325.825 208.818 326.003 212.756 326.308 219.782C326.33 220.295 325.933 220.728 325.421 220.751C325.407 220.752 325.393 220.752 325.38 220.752Z" fill="#BD2025"/>
<path fill-rule="evenodd" clip-rule="evenodd" d="M105.767 159.724C104.558 159.724 103.328 159.332 102.268 158.569C100.266 157.129 98.3763 155.061 96.8037 152.59C96.5277 152.157 96.6559 151.583 97.0881 151.308C97.521 151.033 98.095 151.16 98.3702 151.592C99.7965 153.834 101.565 155.776 103.352 157.061C104.55 157.924 106.04 158.109 107.24 157.546C108.281 157.057 108.927 156.081 109.012 154.869C109.048 154.358 109.493 153.971 110.002 154.007C110.514 154.043 110.9 154.486 110.865 154.998C110.732 156.902 109.698 158.444 108.029 159.227C107.319 159.56 106.547 159.724 105.767 159.724Z" fill="#CD5649"/>
<path fill-rule="evenodd" clip-rule="evenodd" d="M283.911 285.923H295.933V281.637H283.911V285.923Z" fill="#ABD5DC"/>
<path fill-rule="evenodd" clip-rule="evenodd" d="M301.897 285.923H313.919V281.637H301.897V285.923Z" fill="#ABD5DC"/>
<path fill-rule="evenodd" clip-rule="evenodd" d="M331.23 283.805H228.137C223.232 283.805 219.256 287.782 219.256 292.689V293.94L331.23 293.244V283.805Z" fill="#ABD5DC"/>
<path fill-rule="evenodd" clip-rule="evenodd" d="M231.052 285.99H243.074V281.703H231.052V285.99Z" fill="#ABD5DC"/>
<path fill-rule="evenodd" clip-rule="evenodd" d="M247.941 285.99H259.963V281.703H247.941V285.99Z" fill="#ABD5DC"/>
<path fill-rule="evenodd" clip-rule="evenodd" d="M265.115 285.99H277.137V281.703H265.115V285.99Z" fill="#ABD5DC"/>
<path fill-rule="evenodd" clip-rule="evenodd" d="M441.282 255.553H257.153C254.021 255.553 251.483 253.014 251.483 249.883V144.74C251.483 141.608 254.021 139.069 257.153 139.069H441.282C444.413 139.069 446.951 141.608 446.951 144.74V249.883C446.951 253.014 444.413 255.553 441.282 255.553Z" fill="#6DB4C0"/>
<path fill-rule="evenodd" clip-rule="evenodd" d="M331.934 281.388H366.501V233.512H331.934V281.388Z" fill="#6DB4C0"/>
<path fill-rule="evenodd" clip-rule="evenodd" d="M407.241 292.599H291.194V291.688C291.194 286 295.804 281.388 301.491 281.388H396.943C402.63 281.388 407.241 286 407.241 291.688V292.599Z" fill="#6DB4C0"/>
<path fill-rule="evenodd" clip-rule="evenodd" d="M366.501 282.317H331.934C331.421 282.317 331.005 281.901 331.005 281.388C331.005 280.875 331.421 280.459 331.934 280.459H366.501C367.014 280.459 367.43 280.875 367.43 281.388C367.43 281.901 367.014 282.317 366.501 282.317Z" fill="#394D6B"/>
<path fill-rule="evenodd" clip-rule="evenodd" d="M366.501 247.14C365.988 247.14 365.572 246.724 365.572 246.211V222.513C365.572 220.776 364.159 219.362 362.422 219.362H336.013C334.276 219.362 332.862 220.776 332.862 222.513V246.211C332.862 246.724 332.447 247.14 331.934 247.14C331.421 247.14 331.005 246.724 331.005 246.211V222.513C331.005 219.751 333.252 217.505 336.013 217.505H362.422C365.183 217.505 367.43 219.751 367.43 222.513V246.211C367.43 246.724 367.014 247.14 366.501 247.14Z" fill="#394D6B"/>
<path fill-rule="evenodd" clip-rule="evenodd" d="M111.32 50.0565C111.187 50.0565 111.055 50.0572 110.921 50.058C98.8947 50.1634 87.6287 54.946 79.1985 63.5267C70.7683 72.1067 66.1832 83.4572 66.2879 95.4872C66.3925 107.516 71.1748 118.785 79.7535 127.217C88.3316 135.649 99.6772 140.237 111.707 140.131C136.534 139.915 156.556 119.535 156.34 94.7015C156.125 70.0021 135.966 50.0565 111.32 50.0565ZM111.301 141.991C105.121 141.991 99.1148 140.804 93.4416 138.463C87.8382 136.149 82.7943 132.812 78.4519 128.543C74.1086 124.275 70.6852 119.289 68.2747 113.726C65.7793 107.965 64.4865 101.835 64.4312 95.5041C64.3758 89.1744 65.5625 83.0221 67.957 77.2187C70.2697 71.614 73.6059 66.5697 77.8741 62.2255C82.1415 57.8813 87.1262 54.457 92.6887 52.046C98.4475 49.5501 104.576 48.257 110.905 48.2016C117.238 48.1455 123.385 49.3332 129.187 51.7283C134.79 54.0414 139.834 57.3785 144.176 61.6476C148.52 65.916 151.943 70.9018 154.354 76.4656C156.849 82.2258 158.142 88.3568 158.197 94.6866C158.252 101.017 157.066 107.169 154.671 112.972C152.359 118.577 149.022 123.622 144.754 127.965C140.487 132.309 135.502 135.734 129.94 138.145C124.181 140.641 118.052 141.934 111.723 141.989C111.582 141.991 111.442 141.991 111.301 141.991Z" fill="#3B4E6C"/>
<path fill-rule="evenodd" clip-rule="evenodd" d="M126.366 99.6444L113.711 86.9864V119.443H108.917V86.9871L96.2623 99.6444L92.8722 96.2535L111.308 77.8133L111.314 77.8194L111.32 77.8133L129.756 96.2535L126.366 99.6444Z" fill="#3B4E6C"/>
<path fill-rule="evenodd" clip-rule="evenodd" d="M461.428 119.895V155.694C461.428 158.04 459.527 159.941 457.182 159.941H400.133L378.231 179.337C378.01 179.534 377.664 179.355 377.695 179.061L379.737 159.941H372.945C370.601 159.941 368.7 158.04 368.7 155.694V119.895C368.7 117.549 370.601 115.647 372.945 115.647H457.182C459.527 115.647 461.428 117.549 461.428 119.895Z" fill="#FF8873"/>
<path fill-rule="evenodd" clip-rule="evenodd" d="M448.648 132.491H382.77C382.258 132.491 381.842 132.076 381.842 131.562C381.842 131.049 382.258 130.634 382.77 130.634H448.648C449.161 130.634 449.577 131.049 449.577 131.562C449.577 132.076 449.161 132.491 448.648 132.491Z" fill="#FEFEFE"/>
<path fill-rule="evenodd" clip-rule="evenodd" d="M448.648 145.179H382.77C382.258 145.179 381.842 144.763 381.842 144.25C381.842 143.737 382.258 143.321 382.77 143.321H448.648C449.161 143.321 449.577 143.737 449.577 144.25C449.577 144.763 449.161 145.179 448.648 145.179Z" fill="#FEFEFE"/>
</svg>
